Coordinates
version=1
nRows=13
nColumns=22
inDegrees=yes

Units are S.I. units (second, meters, Newtons, ...)
If the header above contains a line with 'inDegrees', this indicates whether rotational values are in degrees (yes) or radians (no).

endheader
time	pelvis_tilt	pelvis_list	pelvis_rotation	pelvis_tx	pelvis_ty	pelvis_tz	hip_flexion_r	hip_adduction_r	hip_rotation_r	knee_angle_r	ankle_angle_r	subtalar_angle_r	hip_flexion_l	hip_adduction_l	hip_rotation_l	knee_angle_l	ankle_angle_l	subtalar_angle_l	lumbar_extension	lumbar_bending	lumbar_rotation
      0.01000000	      2.26333462	     -1.85632886	      1.75876293	      0.85345739	      1.08108965	     -0.34041041	     -4.67565387	      2.56556293	     -2.40819973	     -8.51575494	     10.86830503	     -3.97849386	     -3.71898326	     -1.48002447	     -2.78314445	    -11.98326795	     14.31162253	     -0.27737715	     -3.12960537	      0.06160240	     -5.48558397
      0.02000000	      2.26260922	     -1.85745050	      1.75482962	      0.85342236	      1.08109716	     -0.34038271	     -4.67273294	      2.56829348	     -2.40559963	     -8.51399385	     10.86908065	     -3.97923909	     -3.71675805	     -1.48160049	     -2.78081660	    -11.98296652	     14.31226103	     -0.27675132	     -3.13312204	      0.06039004	     -5.48633845
      0.03000000	      2.26259709	     -1.85891750	      1.75066896	      0.85337971	      1.08110767	     -0.34034949	     -4.66918607	      2.57149312	     -2.40153652	     -8.51415555	     10.86910581	     -3.98057272	     -3.71394529	     -1.48406221	     -2.77816008	    -11.98454338	     14.31213064	     -0.27585677	     -3.13716328	      0.05908976	     -5.48730921
      0.04000000	      2.26318104	     -1.86466750	      1.74687958	      0.85330710	      1.08111844	     -0.34031858	     -4.65919498	      2.57928652	     -2.38205489	     -8.52608955	     10.86501633	     -3.98873443	     -3.70461697	     -1.49117752	     -2.77305794	    -11.99736272	     14.30939103	     -0.27140515	     -3.14450609	      0.06428393	     -5.48585656
      0.05000000	      2.26263517	     -1.86547700	      1.74306915	      0.85325355	      1.08112992	     -0.34028022	     -4.65597659	      2.58202923	     -2.38270535	     -8.52355060	     10.86471761	     -3.98973788	     -3.70163955	     -1.49343256	     -2.77358104	    -11.99625107	     14.30949776	     -0.27100036	     -3.14816465	      0.06118659	     -5.48619479
      0.06000000	      2.26245754	     -1.86661906	      1.73977766	      0.85318941	      1.08114045	     -0.34023522	     -4.65188288	      2.58517674	     -2.38312942	     -8.52220766	     10.86353345	     -3.99103791	     -3.69780682	     -1.49650205	     -2.77425434	    -11.99622268	     14.30918897	     -0.27050652	     -3.15285379	      0.05724273	     -5.48573184
      0.07000000	      2.26258110	     -1.86778909	      1.73665261	      0.85311258	      1.08115170	     -0.34018676	     -4.64719161	      2.58880036	     -2.38390216	     -8.52127363	     10.86177137	     -3.99230951	     -3.69307540	     -1.49972380	     -2.77496350	    -11.99673085	     14.30860585	     -0.27004484	     -3.15857666	      0.05266908	     -5.48456098
      0.08000000	      2.22993093	     -1.88318268	      1.72199708	      0.85299203	      1.08111375	     -0.34011424	     -4.59376124	      2.60618131	     -2.37016678	     -8.53995048	     10.84128495	     -4.04243331	     -3.63436240	     -1.51967923	     -2.80828473	    -12.03059962	     14.31731474	     -0.25267100	     -3.13049667	      0.06230494	     -5.45863599
      0.09000000	      2.23005835	     -1.88372132	      1.71851402	      0.85290761	      1.08112293	     -0.34005948	     -4.58988721	      2.60910606	     -2.37220060	     -8.53729764	     10.84076712	     -4.04252214	     -3.63050153	     -1.52237410	     -2.80780845	    -12.02884324	     14.31701727	     -0.25258150	     -3.13668061	      0.05591963	     -5.45892536
      0.10000000	      2.23011911	     -1.88431204	      1.71572753	      0.85281429	      1.08113262	     -0.34000331	     -4.58534835	      2.61219619	     -2.37484813	     -8.53489534	     10.83940649	     -4.04255211	     -3.62544712	     -1.52532838	     -2.80751879	    -12.02790917	     14.31630194	     -0.25246828	     -3.14423590	      0.04871112	     -5.45775179
      0.11000000	      2.23012365	     -1.88486685	      1.71325421	      0.85271325	      1.08114328	     -0.33994470	     -4.57999029	      2.61535670	     -2.37838702	     -8.53292510	     10.83695755	     -4.04251601	     -3.61919737	     -1.52848347	     -2.80735796	    -12.02824264	     14.31503628	     -0.25229396	     -3.15312971	      0.04058542	     -5.45497526
      0.12000000	      2.23141266	     -1.88298127	      1.71405703	      0.85258999	      1.08115555	     -0.33989564	     -4.56826911	      2.61540595	     -2.39388251	     -8.54454535	     10.81963045	     -4.04258561	     -3.60243356	     -1.52965051	     -2.80902167	    -12.04861253	     14.30616445	     -0.25074737	     -3.16581525	      0.02870023	     -5.43438447
      0.13000000	      2.23046518	     -1.88359755	      1.71029808	      0.85248814	      1.08116399	     -0.33984369	     -4.56254746	      2.61791321	     -2.39637711	     -8.54102868	     10.81897388	     -4.04251310	     -3.59721944	     -1.53211373	     -2.80968882	    -12.04532809	     14.30587132	     -0.25060714	     -3.17348855	      0.02312125	     -5.43486039
